Format                         : Flash Video
File size                      : 332 MiB
Duration                       : 1h 39mn
Overall bit rate               : 466 Kbps
httphostheader                 : r15---sn-h557snel.googlevideo.com

Video
Format                         : AVC
Format/Info                    : Advanced Video Codec
Format profile                 : Main@L3.0
Format settings, CABAC         : Yes
Format settings, ReFrames      : 3 frames
Format settings, GOP           : M=1, N=60
Codec ID                       : 7
Duration                       : 1h 39mn
Bit rate                       : 328 Kbps
Width                          : 634 pixels
Height                         : 360 pixels
Display aspect ratio           : 16:9
Frame rate mode                : Constant
Frame rate                     : 29.970 fps
Color space                    : YUV
Chroma subsampling             : 4:2:0
Bit depth                      : 8 bits
Scan type                      : Progressive
Bits/(Pixel*Frame)             : 0.048
Stream size                    : 234 MiB (70%)

Audio
Format                         : AAC
Format/Info                    : Advanced Audio Codec
Format profile                 : LC
Codec ID                       : 10
Duration                       : 1h 39mn
Bit rate                       : 129 Kbps
Channel(s)                     : 2 channels
Channel positions              : Front: L R
Sampling rate                  : 44.1 KHz
Compression mode               : Lossy
Stream size                    : 91.8 MiB (28%)
